<?xml version="1.0" standalone="no"?>
<!DOCTYPE svg PUBLIC "-//W3C//DTD SVG 20010904//EN"
 "http://www.w3.org/TR/2001/REC-SVG-20010904/DTD/svg10.dtd">
<svg version="1.0" xmlns="http://www.w3.org/2000/svg"
 width="500.000000pt" height="500.000000pt" viewBox="0 0 500.000000 500.000000"
 preserveAspectRatio="xMidYMid meet">

<g transform="translate(0.000000,500.000000) scale(0.100000,-0.100000)"
fill="#000000" stroke="none">
<path d="M432 3478 c-9 -9 -12 -88 -12 -295 l0 -282 -122 -3 -123 -3 -3 -38
c-5 -62 5 -67 134 -67 l114 0 0 -388 c0 -288 3 -391 12 -400 8 -8 64 -12 184
-12 144 0 175 3 188 16 14 13 16 64 16 400 l0 384 125 0 125 0 0 -384 c0 -336
2 -387 16 -400 13 -13 44 -16 188 -16 120 0 176 4 184 12 9 9 12 188 12 744 0
658 -2 732 -16 738 -31 12 -359 7 -372 -6 -9 -9 -12 -88 -12 -295 l0 -283
-125 0 -125 0 0 283 c0 207 -3 286 -12 295 -17 17 -359 17 -376 0z"/>
<path d="M2571 3404 c-106 -55 -121 -230 -25 -314 68 -59 171 -34 213 52 73
152 -54 330 -188 262z"/>
<path d="M1730 2884 c-50 -22 -79 -52 -106 -109 -23 -49 -24 -57 -24 -324 0
-176 4 -287 11 -312 11 -35 10 -40 -20 -77 -42 -53 -41 -72 4 -72 25 0 41 7
57 25 l21 25 36 -23 c35 -21 45 -22 271 -22 219 0 237 1 270 20 50 30 96 96
109 155 17 78 14 493 -3 560 -14 54 -14 56 11 93 15 21 30 40 35 43 4 3 8 12
8 20 0 25 -73 18 -99 -10 l-23 -25 -30 22 c-28 21 -41 22 -261 24 -192 2 -238
0 -267 -13z m314 -116 c10 -15 16 -45 16 -85 0 -62 0 -62 -77 -164 l-78 -102
-3 163 c-3 198 1 210 78 210 39 0 52 -4 64 -22z m1 -644 c-12 -19 -24 -24 -58
-24 -71 0 -82 14 -85 117 l-3 88 78 99 78 99 3 -178 c2 -147 0 -182 -13 -201z"/>
<path d="M2492 2888 c-9 -9 -12 -121 -12 -445 0 -417 1 -433 19 -443 28 -15
254 -13 269 2 17 17 17 869 0 886 -8 8 -53 12 -138 12 -85 0 -130 -4 -138 -12z"/>
<path d="M3013 2881 c-49 -23 -90 -85 -99 -152 -9 -66 0 -70 147 -67 l124 3
15 49 c17 54 41 76 80 76 56 0 94 -94 58 -143 -7 -9 -96 -48 -198 -87 -254
-97 -265 -111 -258 -335 3 -104 6 -125 26 -156 41 -67 60 -74 220 -77 128 -4
147 -2 184 17 41 20 42 20 55 1 13 -18 26 -20 138 -20 99 0 127 3 139 16 14
13 16 63 16 388 0 366 0 372 -22 416 -13 25 -38 55 -57 67 -33 22 -41 23 -280
23 -219 0 -250 -2 -288 -19z m337 -530 c0 -146 -1 -150 -26 -180 -32 -38 -81
-42 -110 -10 -15 17 -20 40 -22 118 -5 131 8 163 80 196 29 13 59 24 66 24 9
1 12 -35 12 -148z"/>
<path d="M3727 2894 c-18 -18 3 -65 122 -274 l129 -225 -141 -184 c-77 -101
-142 -193 -145 -203 -4 -15 2 -18 41 -18 l46 0 123 160 c82 109 124 157 129
148 5 -7 46 -78 91 -158 l84 -145 146 -3 c136 -2 148 -1 157 16 9 16 -10 56
-105 223 -64 112 -124 218 -134 234 l-19 30 144 190 c80 105 145 196 145 203
0 9 -14 12 -47 10 l-48 -3 -120 -158 c-115 -151 -120 -156 -132 -135 -8 13
-48 84 -91 158 l-77 135 -146 3 c-80 1 -148 -1 -152 -4z"/>
<path d="M4595 2626 c-94 -41 -132 -179 -78 -283 59 -115 211 -111 271 7 76
152 -53 337 -193 276z m111 -22 c49 -23 84 -87 84 -153 0 -100 -55 -171 -133
-171 -91 0 -153 77 -145 182 5 65 25 99 78 136 39 26 70 28 116 6z"/>
<path d="M4600 2450 c0 -67 4 -110 10 -110 6 0 10 20 10 44 0 25 4 47 10 51
11 7 39 -21 62 -63 9 -18 24 -32 32 -32 12 0 8 12 -15 51 -21 37 -27 55 -20
62 6 6 11 26 11 43 0 38 -29 64 -72 64 l-28 0 0 -110z m69 66 c14 -16 5 -42
-16 -50 -22 -9 -33 2 -33 35 0 22 5 29 19 29 10 0 24 -6 30 -14z"/>
<path d="M430 1830 c-19 -19 -20 -33 -20 -226 0 -122 4 -213 10 -225 10 -18
23 -19 193 -19 129 0 187 4 195 12 9 9 12 74 12 229 0 214 0 218 -22 233 -18
13 -54 16 -185 16 -150 0 -165 -2 -183 -20z m368 -227 l-3 -218 -180 0 -180 0
-3 205 c-1 112 0 210 2 217 4 10 49 13 186 13 l180 0 -2 -217z"/>
<path d="M544 1771 c-45 -27 -71 -65 -83 -121 -27 -125 45 -235 154 -235 108
0 182 111 154 233 -26 116 -137 177 -225 123z m154 -36 c63 -57 78 -139 40
-215 -60 -117 -186 -117 -245 0 -39 76 -24 158 39 215 31 29 46 35 83 35 37 0
52 -6 83 -35z"/>
<path d="M972 1703 c-21 -8 -33 -50 -22 -78 5 -13 28 -34 50 -45 23 -12 39
-26 37 -33 -4 -13 -42 -14 -69 -2 -14 5 -18 2 -18 -14 0 -39 66 -54 108 -25
18 12 22 24 20 52 -2 30 -10 41 -46 65 -48 32 -46 52 4 44 28 -5 34 -3 34 13
0 10 -7 21 -16 24 -18 7 -63 7 -82 -1z"/>
<path d="M1156 1698 c5 -7 21 -33 36 -57 22 -35 28 -57 28 -99 0 -50 2 -53 23
-50 19 3 22 10 25 56 2 38 12 68 33 101 35 58 35 61 4 61 -17 0 -29 -9 -40
-31 -13 -24 -19 -28 -30 -19 -8 7 -17 20 -20 31 -4 13 -16 19 -36 19 -22 0
-28 -4 -23 -12z"/>
<path d="M1415 1694 c-10 -11 -15 -29 -13 -52 3 -31 9 -40 43 -59 22 -12 40
-28 40 -35 0 -14 -39 -16 -67 -3 -14 5 -18 2 -18 -14 0 -39 66 -54 108 -25 18
12 22 24 20 52 -2 30 -10 41 -46 65 -50 34 -46 52 9 43 31 -5 39 -3 39 9 0 34
-86 48 -115 19z"/>
<path d="M1610 1690 c0 -15 7 -20 30 -20 l29 0 3 -87 c3 -83 4 -88 26 -91 21
-3 22 -1 22 87 l0 91 30 0 c23 0 30 4 30 20 0 18 -7 20 -85 20 -78 0 -85 -2
-85 -20z"/>
<path d="M1870 1600 l0 -110 65 0 c58 0 65 2 65 19 0 16 -8 20 -42 23 -35 2
-44 7 -46 25 -3 19 2 22 40 25 31 2 44 8 46 20 3 13 -6 17 -40 20 -36 2 -44 7
-46 26 -3 20 1 22 42 22 39 0 46 3 46 20 0 18 -7 20 -65 20 l-65 0 0 -110z"/>
<path d="M2092 1603 c3 -103 4 -108 26 -111 21 -3 22 0 22 65 l0 68 23 -32
c12 -18 24 -33 27 -33 3 0 14 14 25 30 l20 30 5 -62 c4 -56 8 -63 28 -66 22
-3 22 -2 22 107 0 103 -1 111 -19 111 -11 0 -32 -16 -47 -35 -14 -19 -30 -35
-35 -35 -5 0 -19 16 -31 35 -15 23 -31 35 -46 35 -22 0 -23 -1 -20 -107z"/>
<path d="M2395 1694 c-10 -11 -15 -29 -13 -52 3 -31 9 -40 43 -59 22 -12 40
-28 40 -35 0 -14 -39 -16 -67 -3 -14 5 -18 2 -18 -14 0 -39 66 -54 108 -25 18
12 22 24 20 52 -2 30 -10 41 -46 65 -50 34 -46 52 9 43 31 -5 39 -3 39 9 0 34
-86 48 -115 19z"/>
</g>
</svg>
