<?xml version="1.0" standalone="no"?>
<!DOCTYPE svg PUBLIC "-//W3C//DTD SVG 20010904//EN"
 "http://www.w3.org/TR/2001/REC-SVG-20010904/DTD/svg10.dtd">
<svg version="1.0" xmlns="http://www.w3.org/2000/svg"
 width="480.000000pt" height="480.000000pt" viewBox="0 0 480.000000 480.000000"
 preserveAspectRatio="xMidYMid meet">

<g transform="translate(0.000000,480.000000) scale(0.100000,-0.100000)"
fill="#000000" stroke="none">
<path d="M2075 4474 c-201 -21 -367 -63 -445 -112 -63 -40 -175 -163 -190
-207 -13 -40 -9 -371 10 -770 5 -115 21 -545 34 -955 14 -410 28 -794 31 -855
3 -60 6 -189 7 -285 0 -156 3 -183 24 -249 13 -40 24 -79 24 -86 0 -7 16 -44
35 -83 42 -83 133 -173 221 -218 48 -26 56 -34 66 -71 9 -37 15 -44 47 -53 93
-25 174 -40 270 -50 l104 -11 38 30 c32 26 46 31 94 31 77 0 242 35 334 70
157 61 291 163 354 270 38 66 100 265 94 303 -6 35 65 1890 84 2187 12 194 13
522 3 725 l-7 120 -36 34 c-132 125 -255 176 -523 217 -99 15 -576 28 -673 18z
m-27 -368 c57 -8 106 -17 110 -20 3 -4 -21 -3 -54 1 -82 11 -121 9 -176 -7
-37 -11 -51 -11 -60 -2 -18 18 9 42 46 42 17 0 77 -7 134 -14z m-18 -946 c0
-11 5 -20 10 -20 6 0 10 9 10 21 0 42 25 12 28 -34 2 -37 0 -47 -12 -47 -10 0
-16 9 -16 25 0 14 -4 25 -10 25 -5 0 -10 -11 -10 -25 0 -34 -27 -32 -31 3 -6
42 1 72 17 72 8 0 14 -9 14 -20z m140 -10 c0 -5 -2 -10 -4 -10 -3 0 -8 5 -11
10 -3 6 -1 10 4 10 6 0 11 -4 11 -10z m-19 -22 c20 0 29 -4 30 -16 1 -15 2
-15 6 1 3 10 14 17 29 17 20 0 24 -5 24 -30 0 -25 -4 -30 -25 -30 -14 0 -25 6
-25 13 0 8 -3 8 -8 1 -6 -9 -36 -11 -79 -6 -7 1 -13 13 -13 25 0 28 9 39 23
30 5 -3 23 -6 38 -5z m124 -8 c4 -6 9 -8 13 -6 4 2 8 -9 9 -26 2 -25 0 -28
-12 -18 -8 6 -18 10 -22 7 -4 -3 -8 8 -9 24 -1 29 9 38 21 19z m-110 -255 c29
-28 33 -80 10 -111 -17 -23 -20 -2 -3 26 27 42 -28 107 -79 94 -29 -8 -48 -55
-34 -82 16 -30 13 -40 -4 -18 -56 74 45 157 110 91z m5 -170 c60 -64 -2 -150
-85 -119 -18 7 -45 55 -45 81 0 62 84 87 130 38z m-1 -164 c24 -6 22 -8 -28
-46 -64 -46 -58 -51 65 -57 43 -2 78 -7 77 -11 -2 -4 -6 -7 -10 -8 -18 -1
-199 13 -212 17 -8 3 7 20 40 47 l53 42 -48 7 c-26 4 -51 9 -54 12 -7 8 87 6
117 -3z m74 -21 c-13 -5 -23 -15 -23 -21 0 -7 -2 -10 -5 -7 -12 11 9 38 29 37
21 0 21 0 -1 -9z m47 -20 c8 -5 11 -10 5 -10 -5 0 -17 5 -25 10 -8 5 -10 10
-5 10 6 0 17 -5 25 -10z m17 -42 c-3 -8 -6 -5 -6 6 -1 11 2 17 5 13 3 -3 4
-12 1 -19z m33 -47 c0 -10 -12 -31 -26 -47 -27 -29 -23 -13 4 18 8 10 12 26 9
38 -3 11 -1 18 4 14 5 -3 9 -13 9 -23z m-230 0 l54 -6 -51 -40 c-29 -22 -52
-43 -53 -47 0 -5 23 -8 50 -8 31 0 50 -4 50 -11 0 -8 -15 -10 -46 -5 -26 3
-59 6 -73 6 -25 1 -23 3 24 45 27 24 48 46 45 48 -3 3 -41 8 -85 10 -43 3 -81
10 -83 15 -3 10 33 9 168 -7z m140 -74 c11 -5 9 -6 -4 -4 -11 1 -21 9 -23 17
-3 10 -2 11 4 4 4 -6 15 -14 23 -17z m-87 -83 c35 -6 37 -8 37 -45 0 -22 -4
-39 -10 -39 -5 0 -10 16 -10 35 0 28 -4 35 -20 35 -16 0 -20 -7 -20 -35 0 -19
-4 -35 -10 -35 -5 0 -10 16 -10 35 0 19 -4 35 -9 35 -5 0 -16 3 -25 6 -13 5
-16 -1 -16 -30 0 -20 -4 -36 -10 -36 -5 0 -10 18 -10 40 0 40 0 40 38 40 20 0
54 -3 75 -6z m16 -130 c22 -28 27 -78 11 -104 -13 -21 -23 -5 -11 18 17 31 13
51 -14 77 -30 30 -58 32 -86 4 -20 -20 -21 -31 -3 -86 5 -17 4 -17 -10 1 -20
25 -20 65 0 94 23 33 86 31 113 -4z m20 -176 c-1 -24 -3 -36 -6 -27 -3 12 -21
19 -69 24 -84 9 -83 22 1 17 55 -4 65 -2 65 12 0 9 2 16 5 16 3 0 4 -19 4 -42z
m-30 -74 c29 -6 31 -9 29 -48 l-1 -41 -4 38 c-4 32 -8 37 -29 37 -21 0 -24 -5
-26 -37 l-1 -38 -4 38 c-2 20 -7 37 -11 37 -4 0 -17 3 -29 6 -19 5 -22 1 -26
-33 l-4 -38 -1 43 -2 42 39 0 c21 0 53 -3 70 -6z m0 -110 c29 -6 31 -9 31 -50
0 -53 -30 -80 -80 -69 -39 8 -60 39 -60 87 0 37 1 38 39 38 21 0 53 -3 70 -6z
m-32 -370 c-3 -3 -12 -4 -19 -1 -8 3 -5 6 6 6 11 1 17 -2 13 -5z m34 -70 c-5
-18 -6 -35 -3 -38 3 -3 -3 -6 -13 -6 -14 0 -15 3 -5 15 9 10 9 15 1 15 -6 0
-11 9 -11 20 0 19 -1 19 -19 3 -11 -9 -17 -22 -14 -29 3 -9 -2 -14 -13 -13
-12 0 -14 3 -6 6 10 4 10 8 1 19 -7 8 -7 14 -1 14 5 0 13 11 16 25 7 26 31 34
39 13 4 -8 9 -3 13 11 l7 25 9 -23 c5 -13 4 -38 -1 -57z m-161 50 c0 -8 -5
-12 -10 -9 -6 4 -8 11 -5 16 9 14 15 11 15 -7z m242 -19 c-2 -16 -8 -31 -13
-33 -5 -2 -6 -15 -3 -28 5 -18 2 -24 -10 -24 -18 0 -35 32 -20 37 5 2 8 22 6
44 -4 38 -3 40 19 37 20 -2 23 -8 21 -33z m-204 -19 c5 -23 -12 -40 -32 -33
-16 6 -12 37 5 37 4 0 6 -7 3 -15 -4 -8 -1 -15 5 -15 14 0 15 37 1 43 -6 3 -5
4 2 3 7 -1 15 -11 16 -20z m-61 -178 c-3 -7 -5 -2 -5 12 0 14 2 19 5 13 2 -7
2 -19 0 -25z m43 22 c0 -5 -5 -10 -11 -10 -5 0 -7 5 -4 10 3 6 8 10 11 10 2 0
4 -4 4 -10z m57 -42 c-3 -8 -6 -5 -6 6 -1 11 2 17 5 13 3 -3 4 -12 1 -19z"/>
<path d="M2077 2692 c-49 -54 18 -137 78 -98 34 23 34 68 -1 95 -33 26 -56 27
-77 3z"/>
<path d="M2073 1714 c7 -42 28 -64 63 -64 31 0 54 26 54 61 0 25 -4 29 -29 29
-16 0 -43 3 -61 7 l-33 6 6 -39z"/>
</g>
</svg>
